<?xml version="1.0" encoding="utf-8"?>
<!-- Generator: Adobe Illustrator 25.0.0, SVG Export Plug-In . SVG Version: 6.00 Build 0)  -->
<svg version="1.1" id="Layer_1" xmlns="http://www.w3.org/2000/svg" xmlns:xlink="http://www.w3.org/1999/xlink" x="0px" y="0px"
	 viewBox="0 0 106 48.2" style="enable-background:new 0 0 106 48.2;" xml:space="preserve">
<style type="text/css">
	.st0{fill:#C0392B;}
	.st1{fill:#FFFFFF;}
</style>
<g>
	<rect y="0" class="st0" width="106" height="48.2"/>
	<g>
		<path class="st1" d="M17.6,25.3h-2.2v8.1h-4.5v-22H18c2.2,0,4,0.6,5.2,1.7c1.2,1.2,1.8,2.8,1.8,4.9c0,2.9-1.1,5-3.2,6.1l3.9,9v0.2
			h-4.8L17.6,25.3z M15.4,21.6h2.5c0.9,0,1.6-0.3,2-0.9c0.4-0.6,0.7-1.4,0.7-2.4c0-2.2-0.9-3.3-2.6-3.3h-2.6V21.6z"/>
		<path class="st1" d="M41.6,15h-5.4v18.3h-4.5V15h-5.4v-3.7h15.3V15z"/>
	</g>
	<g>
		<path class="st1" d="M52.4,17.3h-0.8v2.9h-1.6v-7.8h2.5c0.8,0,1.4,0.2,1.8,0.6c0.4,0.4,0.6,1,0.6,1.7c0,1-0.4,1.8-1.1,2.2l1.4,3.2
			v0.1h-1.7L52.4,17.3z M51.7,16h0.9c0.3,0,0.6-0.1,0.7-0.3c0.2-0.2,0.2-0.5,0.2-0.8c0-0.8-0.3-1.2-0.9-1.2h-0.9V16z"/>
		<path class="st1" d="M58.4,20.3c-0.8,0-1.4-0.2-1.8-0.7s-0.7-1.1-0.7-2v-0.5c0-0.9,0.2-1.6,0.6-2.1s1-0.7,1.7-0.7
			c0.7,0,1.3,0.2,1.6,0.7c0.4,0.5,0.6,1.2,0.6,2.1v0.7h-3c0,0.4,0.1,0.7,0.3,0.9s0.4,0.3,0.8,0.3c0.5,0,0.9-0.2,1.3-0.5l0.6,0.9
			c-0.2,0.3-0.5,0.5-0.8,0.6C59.2,20.2,58.9,20.3,58.4,20.3z M57.5,16.7H59v-0.1c0-0.3-0.1-0.6-0.2-0.8s-0.3-0.3-0.6-0.3
			s-0.5,0.1-0.6,0.3C57.6,16,57.5,16.3,57.5,16.7z"/>
		<path class="st1" d="M61.2,17.1c0-1,0.2-1.7,0.5-2.1s0.8-0.7,1.4-0.7c0.5,0,0.9,0.2,1.2,0.6l0.1-0.5h1.4v5.8
			c0,0.7-0.2,1.3-0.6,1.7c-0.4,0.4-1,0.6-1.8,0.6c-0.3,0-0.7-0.1-1-0.2c-0.4-0.1-0.6-0.3-0.8-0.5l0.5-1.1c0.1,0.2,0.3,0.3,0.6,0.4
			c0.2,0.1,0.4,0.1,0.6,0.1c0.3,0,0.6-0.1,0.7-0.2c0.1-0.2,0.2-0.4,0.2-0.8v-0.5c-0.3,0.4-0.7,0.6-1.1,0.6c-0.6,0-1.1-0.2-1.4-0.7
			c-0.3-0.5-0.5-1.2-0.5-2V17.1z M62.7,17.5c0,0.5,0.1,0.9,0.2,1.2c0.1,0.2,0.4,0.4,0.7,0.4c0.3,0,0.5-0.1,0.7-0.3v-2.8
			c-0.2-0.2-0.4-0.4-0.7-0.4c-0.3,0-0.5,0.1-0.7,0.4c-0.1,0.2-0.2,0.6-0.2,1.2V17.5z"/>
		<path class="st1" d="M66.9,12.8c0-0.2,0.1-0.4,0.2-0.6s0.4-0.2,0.6-0.2s0.5,0.1,0.6,0.2s0.2,0.3,0.2,0.6c0,0.2-0.1,0.4-0.2,0.6
			c-0.1,0.2-0.3,0.2-0.6,0.2s-0.5-0.1-0.6-0.2C67,13.3,66.9,13.1,66.9,12.8z M68.5,20.2H67v-5.8h1.5V20.2z"/>
		<path class="st1" d="M69.5,17.1c0-0.9,0.2-1.6,0.6-2.1s1-0.8,1.7-0.8c0.7,0,1.3,0.3,1.7,0.8s0.6,1.2,0.6,2.1v0.4
			c0,0.9-0.2,1.6-0.6,2.1s-1,0.7-1.7,0.7c-0.7,0-1.3-0.2-1.7-0.7c-0.4-0.5-0.6-1.2-0.6-2.1V17.1z M71,17.4c0,1,0.3,1.6,0.8,1.6
			c0.5,0,0.8-0.4,0.8-1.3l0-0.6c0-0.5-0.1-0.9-0.2-1.2c-0.1-0.3-0.4-0.4-0.6-0.4c-0.3,0-0.5,0.1-0.6,0.4c-0.1,0.3-0.2,0.6-0.2,1.2
			V17.4z"/>
		<path class="st1" d="M76.5,14.3l0,0.6c0.3-0.5,0.8-0.7,1.3-0.7c1,0,1.5,0.7,1.5,2.1v3.8h-1.5v-3.7c0-0.3,0-0.6-0.1-0.7
			c-0.1-0.1-0.3-0.2-0.5-0.2c-0.3,0-0.5,0.1-0.6,0.4v4.2h-1.5v-5.8H76.5z"/>
		<path class="st1" d="M83.3,20.2c0-0.1-0.1-0.2-0.1-0.5c-0.3,0.4-0.6,0.6-1.1,0.6c-0.5,0-0.9-0.2-1.2-0.5c-0.3-0.3-0.5-0.7-0.5-1.3
			c0-0.6,0.2-1.1,0.6-1.4c0.4-0.3,0.9-0.5,1.7-0.5h0.5v-0.5c0-0.3,0-0.4-0.1-0.6s-0.2-0.2-0.4-0.2c-0.4,0-0.6,0.2-0.6,0.7h-1.5
			c0-0.5,0.2-1,0.6-1.3c0.4-0.3,0.9-0.5,1.5-0.5c0.6,0,1.1,0.2,1.5,0.5c0.3,0.3,0.5,0.8,0.5,1.4v2.7c0,0.5,0.1,0.9,0.2,1.2v0.1H83.3
			z M82.4,19.1c0.2,0,0.3,0,0.4-0.1s0.2-0.1,0.3-0.2v-1.2h-0.4c-0.3,0-0.5,0.1-0.6,0.2c-0.1,0.2-0.2,0.4-0.2,0.7
			C81.9,18.9,82.1,19.1,82.4,19.1z"/>
		<path class="st1" d="M87.3,20.2h-1.5v-8.2h1.5V20.2z"/>
		<path class="st1" d="M90.8,20.3c-0.8,0-1.4-0.2-1.8-0.7c-0.4-0.5-0.7-1.1-0.7-2v-0.5c0-0.9,0.2-1.6,0.6-2.1c0.4-0.5,1-0.7,1.7-0.7
			c0.7,0,1.3,0.2,1.6,0.7c0.4,0.5,0.6,1.2,0.6,2.1v0.7h-3c0,0.4,0.1,0.7,0.3,0.9s0.4,0.3,0.8,0.3c0.5,0,0.9-0.2,1.3-0.5l0.6,0.9
			c-0.2,0.3-0.5,0.5-0.8,0.6C91.6,20.2,91.3,20.3,90.8,20.3z M89.9,16.7h1.5v-0.1c0-0.3-0.1-0.6-0.2-0.8s-0.3-0.3-0.6-0.3
			s-0.5,0.1-0.6,0.3C90,16,89.9,16.3,89.9,16.7z"/>
		<path class="st1" d="M96.3,18.6c0-0.1-0.1-0.2-0.2-0.4c-0.1-0.1-0.4-0.3-0.8-0.4c-0.6-0.3-1.1-0.5-1.3-0.8s-0.4-0.6-0.4-1
			c0-0.5,0.2-0.9,0.6-1.3c0.4-0.3,0.9-0.5,1.5-0.5c0.6,0,1.1,0.2,1.5,0.5s0.6,0.8,0.6,1.3h-1.5c0-0.5-0.2-0.7-0.6-0.7
			c-0.2,0-0.3,0.1-0.4,0.2s-0.2,0.2-0.2,0.4c0,0.1,0.1,0.2,0.2,0.3c0.1,0.1,0.4,0.2,0.8,0.4c0.6,0.2,1.1,0.5,1.3,0.8
			c0.3,0.3,0.4,0.6,0.4,1.1c0,0.5-0.2,0.9-0.6,1.3c-0.4,0.3-0.9,0.5-1.5,0.5c-0.4,0-0.8-0.1-1.1-0.2c-0.3-0.2-0.6-0.4-0.8-0.7
			c-0.2-0.3-0.3-0.6-0.3-1H95c0,0.3,0.1,0.5,0.2,0.6c0.1,0.1,0.3,0.2,0.6,0.2C96.1,19.2,96.3,19,96.3,18.6z"/>
	</g>
	<g>
		<path class="st1" d="M55.4,25.8h-1.9v6.5h-1.6v-6.5H50v-1.3h5.4V25.8z"/>
		<path class="st1" d="M58.1,32.3c0-0.1-0.1-0.2-0.1-0.5c-0.3,0.4-0.6,0.6-1.1,0.6c-0.5,0-0.9-0.2-1.2-0.5c-0.3-0.3-0.5-0.7-0.5-1.3
			c0-0.6,0.2-1.1,0.6-1.4c0.4-0.3,0.9-0.5,1.7-0.5h0.5v-0.5c0-0.3,0-0.4-0.1-0.6s-0.2-0.2-0.4-0.2c-0.4,0-0.6,0.2-0.6,0.7h-1.5
			c0-0.5,0.2-1,0.6-1.3c0.4-0.3,0.9-0.5,1.5-0.5c0.6,0,1.1,0.2,1.5,0.5c0.3,0.3,0.5,0.8,0.5,1.4V31c0,0.5,0.1,0.9,0.2,1.2v0.1H58.1z
			 M57.2,31.2c0.2,0,0.3,0,0.4-0.1c0.1-0.1,0.2-0.1,0.3-0.2v-1.2h-0.4c-0.3,0-0.5,0.1-0.6,0.2c-0.1,0.2-0.2,0.4-0.2,0.7
			C56.7,31,56.9,31.2,57.2,31.2z"/>
		<path class="st1" d="M60.3,29.2c0-1,0.2-1.7,0.5-2.1c0.3-0.5,0.8-0.7,1.4-0.7c0.5,0,0.9,0.2,1.2,0.6l0.1-0.5H65v5.8
			c0,0.7-0.2,1.3-0.6,1.7c-0.4,0.4-1,0.6-1.8,0.6c-0.3,0-0.7-0.1-1-0.2c-0.4-0.1-0.6-0.3-0.8-0.5l0.5-1.1c0.1,0.2,0.3,0.3,0.6,0.4
			c0.2,0.1,0.4,0.1,0.6,0.1c0.3,0,0.6-0.1,0.7-0.2c0.1-0.2,0.2-0.4,0.2-0.8v-0.5c-0.3,0.4-0.7,0.6-1.1,0.6c-0.6,0-1.1-0.2-1.4-0.7
			c-0.3-0.5-0.5-1.2-0.5-2V29.2z M61.9,29.6c0,0.5,0.1,0.9,0.2,1.2s0.4,0.4,0.7,0.4c0.3,0,0.5-0.1,0.7-0.3V28
			c-0.2-0.2-0.4-0.4-0.7-0.4c-0.3,0-0.5,0.1-0.7,0.4c-0.1,0.2-0.2,0.6-0.2,1.2V29.6z"/>
		<path class="st1" d="M68.4,32.4c-0.8,0-1.4-0.2-1.8-0.7c-0.4-0.5-0.7-1.1-0.7-2v-0.5c0-0.9,0.2-1.6,0.6-2.1c0.4-0.5,1-0.7,1.7-0.7
			c0.7,0,1.3,0.2,1.6,0.7c0.4,0.5,0.6,1.2,0.6,2.1v0.7h-3c0,0.4,0.1,0.7,0.3,0.9c0.2,0.2,0.4,0.3,0.8,0.3c0.5,0,0.9-0.2,1.3-0.5
			l0.6,0.9c-0.2,0.3-0.5,0.5-0.8,0.6S68.8,32.4,68.4,32.4z M67.4,28.9H69v-0.1c0-0.3-0.1-0.6-0.2-0.8c-0.1-0.2-0.3-0.3-0.6-0.3
			s-0.5,0.1-0.6,0.3C67.5,28.1,67.5,28.4,67.4,28.9z"/>
		<path class="st1" d="M75.9,29.6c0,0.9-0.2,1.6-0.5,2.1c-0.3,0.5-0.8,0.7-1.4,0.7c-0.5,0-0.9-0.2-1.2-0.7l0,0.6h-1.4v-8.3h1.5V27
			c0.3-0.4,0.7-0.6,1.1-0.6c0.6,0,1.1,0.2,1.4,0.7c0.3,0.5,0.5,1.2,0.5,2.1V29.6z M74.3,29.2c0-0.6-0.1-1-0.2-1.2
			c-0.1-0.2-0.3-0.3-0.6-0.3c-0.3,0-0.6,0.1-0.7,0.4v2.6c0.1,0.3,0.4,0.4,0.7,0.4c0.3,0,0.5-0.1,0.6-0.3c0.1-0.2,0.2-0.6,0.2-1.1
			V29.2z"/>
		<path class="st1" d="M78.4,32.3h-1.5v-8.3h1.5V32.3z"/>
		<path class="st1" d="M82.3,32.3c0-0.1-0.1-0.2-0.1-0.5c-0.3,0.4-0.6,0.6-1.1,0.6c-0.5,0-0.9-0.2-1.2-0.5c-0.3-0.3-0.5-0.7-0.5-1.3
			c0-0.6,0.2-1.1,0.6-1.4c0.4-0.3,0.9-0.5,1.7-0.5h0.5v-0.5c0-0.3,0-0.4-0.1-0.6s-0.2-0.2-0.4-0.2c-0.4,0-0.6,0.2-0.6,0.7h-1.5
			c0-0.5,0.2-1,0.6-1.3c0.4-0.3,0.9-0.5,1.5-0.5c0.6,0,1.1,0.2,1.5,0.5c0.3,0.3,0.5,0.8,0.5,1.4V31c0,0.5,0.1,0.9,0.2,1.2v0.1H82.3z
			 M81.4,31.2c0.2,0,0.3,0,0.4-0.1c0.1-0.1,0.2-0.1,0.3-0.2v-1.2h-0.4c-0.3,0-0.5,0.1-0.6,0.2c-0.1,0.2-0.2,0.4-0.2,0.7
			C80.9,31,81.1,31.2,81.4,31.2z"/>
		<path class="st1" d="M86.5,25.1v1.4h0.8v1.1h-0.8v2.9c0,0.2,0,0.4,0.1,0.5c0.1,0.1,0.2,0.1,0.4,0.1c0.1,0,0.3,0,0.4,0l0,1.2
			c-0.3,0.1-0.5,0.1-0.8,0.1c-1,0-1.5-0.6-1.5-1.7v-3.1h-0.7v-1.1H85v-1.4H86.5z"/>
		<path class="st1" d="M89.9,25.1v1.4h0.8v1.1h-0.8v2.9c0,0.2,0,0.4,0.1,0.5c0.1,0.1,0.2,0.1,0.4,0.1c0.1,0,0.3,0,0.4,0l0,1.2
			c-0.3,0.1-0.5,0.1-0.8,0.1c-1,0-1.5-0.6-1.5-1.7v-3.1h-0.7v-1.1h0.7v-1.4H89.9z"/>
	</g>
</g>
</svg>
