<?xml version="1.0" encoding="utf-8"?>
<!-- Generator: Adobe Illustrator 25.0.0, SVG Export Plug-In . SVG Version: 6.00 Build 0)  -->
<svg version="1.1" id="Layer_1" xmlns="http://www.w3.org/2000/svg" xmlns:xlink="http://www.w3.org/1999/xlink" x="0px" y="0px"
	 viewBox="0 0 48.3 48.2" style="enable-background:new 0 0 48.3 48.2;" xml:space="preserve">
<style type="text/css">
	.st0{fill:#C0392B;}
	.st1{fill:#FFFFFF;stroke:#FFFFFF;stroke-miterlimit:10;}
	.st2{fill:#FFFFFF;}
</style>
<path class="st0" d="M37.8,0H10.6C4.8,0,0.1,4.7,0.1,10.5v27.2c0,5.8,4.7,10.5,10.5,10.5h27.2c5.8,0,10.5-4.7,10.5-10.5V10.5
	C48.3,4.7,43.6,0,37.8,0z"/>
<g>
	<rect x="31.9" y="23.5" class="st1" width="13.5" height="1.6"/>
	<rect x="37.9" y="17.4" class="st1" width="1.6" height="13.5"/>
</g>
<g>
	<path class="st2" d="M10.8,26.2H9.2v5.7H6.1V16.2h5c1.6,0,2.8,0.4,3.7,1.2c0.9,0.8,1.3,2,1.3,3.5c0,2.1-0.8,3.5-2.3,4.4l2.7,6.4
		v0.2h-3.4L10.8,26.2z M9.2,23.5H11c0.6,0,1.1-0.2,1.4-0.6c0.3-0.4,0.5-1,0.5-1.7c0-1.6-0.6-2.4-1.8-2.4H9.2V23.5z"/>
	<path class="st2" d="M27.8,18.9H24v13h-3.2v-13H17v-2.6h10.8V18.9z"/>
</g>
</svg>
