<svg xmlns="http://www.w3.org/2000/svg" viewBox="0 0 194.27 48.25"><defs><style>.cls-1{fill:#c0392b;}.cls-2{fill:none;}.cls-3{fill:#fff;}</style></defs><g id="Object"><rect class="cls-1" width="194.27" height="48.25"/><path class="cls-2" d="M21.33,6A18.66,18.66,0,1,0,37.15,27.15,18.69,18.69,0,0,0,21.33,6Z"/><path class="cls-3" d="M11.09,24.15a1.35,1.35,0,0,1,0,1.13c-.29.45-1.18.42-1.29,1.37a2.56,2.56,0,0,0,.54,2c.43.69.11,1.11.59,1.45s1.61.53,1.39,1.39-.62,2.46-.41,2.85-.06.39-.13.88.62,1,.57,1.6-.68,1.23-.27,1.88.5.41.68,1,.31.84.63.92.84.16,1,.45.66-.24.34-.55-.73-.2-.61-.81.48-.8,0-1.1-.4-.65-.2-.66.66-.2.27-.52-.5-.4-.2-.39a2.22,2.22,0,0,0,2-.48,19.71,19.71,0,0,0,1.53-1.69,2.17,2.17,0,0,0,.16-1.07c-.09-.55.33-.69,1-.62s.64-.27.64-.27.63.66.85-2c0,0,0-.44.78-.82s.12-1.34-.34-1.34c0,0-.18-.59-.56-.68s-1.26,0-1.62-.26a5.75,5.75,0,0,0-.85-.52s.43-1.89-1.42-1.89c0,0-.27-1.37-1.2-1.33s-1,.11-1.18-.11-.3-1.07-1-.9-.81,1-1.44.82-1.44-.14-1.25-.77.3-1.38-.69-1.39c0,0-.25-.11.16-.44s.23-.87,0-.83S8.73,21,8.4,21s-1.4-.17-.81-1.47,3.38-1.44,3.58-.78,0,.92.62,1,.46-1.1.46-1.1L14,17.52a1.48,1.48,0,0,0,.31-.35c.13-.21,2.3-1.26,2.77-2s.63-1.13,1.24-.81.87.39,1,0,1,.64,1.3.19a.66.66,0,0,0-.5-1.1c-.69-.1.21-.77-.07-.94s-.79.42-1.05.18.29-1.11-.6-1.14-1,.05-1.27,1-.66,0-1.37.73-.53.29-.6-.15a1.12,1.12,0,0,0-1-.82c-.5,0-.3-.93.42-1.13s1.6-.53,1.6-.53.08.61.6.45a1.15,1.15,0,0,0,.7-.69l.51.07a2.43,2.43,0,0,1,.46-.4c.1,0,1.17.17,1.17.17s.6,0,0,.24-.92-.07-.79.45.16.22.54.57a.66.66,0,0,0,1.12-.2s.79.31,1-.19a.5.5,0,0,0-.24-.67,1.6,1.6,0,0,0-.77-1.1C19.8,9,18,8.59,17.86,9.53s-.88.34-.88.34a1,1,0,0,0,.5-.72c.08-.52-1.31-.76-1.35-.3s.31.67-.07.75a7.39,7.39,0,0,1-1.19.23c-.47,0-.52-.54-.52-.54a2.61,2.61,0,0,0,.87-.07c.52-.13.82-.61.25-.79s0,.43-1.23.25c0,0-.16-.06-.3-.47s-1.3-.62-1.72-.25-.19.67.16.78-.15.35.39.46.77.17.62.32-2.89-.65-2.83-1.27c0,0-5.49,2.49-7.68,7.6a.53.53,0,0,0,.41.39c.35.09.58.12.45.79s-.34,2.11.56,2.27.45-.6.24-1-.35-1.47.17-1.2-.24.33.54,1.8-.43,1.36.51,2.42,1.47-.05,1.78.33,0,.59.63.68.35-.18.63.42S9.27,24.58,11.09,24.15Z"/><path class="cls-3" d="M17.37,15.48s-.5.2-.27.46S17.94,16.06,17.37,15.48Z"/><path class="cls-3" d="M18.09,14.6a.26.26,0,0,0-.33.25c-.05.32.49.5.65.26S18.09,14.6,18.09,14.6Z"/><path class="cls-3" d="M18.9,15.21a1,1,0,0,1-.51.32c-.27,0-.63,0-.43.44s.63,0,.63,0S19.55,15.73,18.9,15.21Z"/><path class="cls-3" d="M19.92,14.73s-.84-.09-.47.56a2.29,2.29,0,0,1,.47.36c.24.24.82.32.87,0S20.7,14.84,19.92,14.73Z"/><path class="cls-3" d="M28.53,19.6s-1.52-.48-2,.48-.28,1.08-1.7,1.47-.34,1.24-.34,1.24.45.3-.09.62a1.59,1.59,0,0,0-.52,1.81,5.3,5.3,0,0,0,1.52,2.07c.53.25,2.06.43,2.38.05s.59-.45,1-.06,1.76.16,1.61.53A2.21,2.21,0,0,0,30,30c.55,1,.94,1.79.3,2.32a1.17,1.17,0,0,0,0,1.85s-.45,1.3,0,1.85a1.86,1.86,0,0,1,.19,1.68c-.16.38,0,.17,0,.17s-.12.58.19.26a19.42,19.42,0,0,0,6-16.09s-1.65.16-1.81-.32-.7-.67-1.78-.49-.66-.26-1-.41a1.49,1.49,0,0,0-.78-.08S32.35,18.8,28.53,19.6Z"/><path class="cls-3" d="M29.1,17.2s.2.7-.27.53-1.7-.61-1.77.54,1,1.13,1.86.93a2.32,2.32,0,0,0,1.34-1.27s.89.46,1.24-.12c0,0,.37,1.08.91,1.23a.5.5,0,0,0-.41.6c.09.51,1.58.26,1.26-.71s-1.84-.83-.93-1.36,1.31,1,1.32,1.38-.32,1.34.45,1,.62-1.5.86-.9-.21,1.26.51,1.33a5.29,5.29,0,0,1,.9.13,21.84,21.84,0,0,0-3.88-7.77s0,.36-.68.39a.82.82,0,0,0-.62,1.34c.45.49,1.15.23,1.13.59s-.14.54-.67.3-.86-.19-1,.29-.35.84-.72.66S28.69,16.42,29.1,17.2Z"/><path class="cls-3" d="M27.94,14.49a.59.59,0,0,0-.15,1c.61.62.77-.75,1.09-.63a.29.29,0,0,1,.08.54c-.21.1-.63.47-.21.59s1.41.34,1.39-.26a.6.6,0,0,0-.47-.66s-.45-.53-.12-1a.41.41,0,0,0-.47-.43c-.49,0-.48.82-.58.84A4.72,4.72,0,0,1,27.94,14.49Z"/><path class="cls-3" d="M53.33,42.45H50.25V24.68h3.08Z"/><path class="cls-3" d="M60.24,42.45h-3V23.7h3Z"/><path class="cls-3" d="M66.88,42.45h-3V23.7h3Z"/><path class="cls-3" d="M78.36,41.16a4.62,4.62,0,0,1-3.71,1.54,4.1,4.1,0,0,1-3.26-1.26,5.39,5.39,0,0,1-1.1-3.64V29.24h3v8.53c0,1.67.7,2.51,2.09,2.51a3,3,0,0,0,2.92-1.55V29.24h3V42.45h-2.8Z"/><path class="cls-3" d="M91.9,38.86a1.33,1.33,0,0,0-.65-1.2,6.85,6.85,0,0,0-2.17-.74,11.45,11.45,0,0,1-2.53-.8A3.38,3.38,0,0,1,84.33,33a3.51,3.51,0,0,1,1.44-2.85A5.66,5.66,0,0,1,89.43,29a5.93,5.93,0,0,1,3.83,1.17,3.73,3.73,0,0,1,1.46,3h-3a1.83,1.83,0,0,0-.63-1.42,2.43,2.43,0,0,0-1.69-.57,2.63,2.63,0,0,0-1.59.45,1.44,1.44,0,0,0-.61,1.21A1.22,1.22,0,0,0,87.8,34a8,8,0,0,0,2.32.76,11.05,11.05,0,0,1,2.74.91,4,4,0,0,1,1.48,1.28,3.27,3.27,0,0,1,.48,1.8,3.43,3.43,0,0,1-1.48,2.89,6.26,6.26,0,0,1-3.87,1.11,6.81,6.81,0,0,1-2.89-.59,4.75,4.75,0,0,1-2-1.61,3.82,3.82,0,0,1-.71-2.21h2.88a2.1,2.1,0,0,0,.8,1.62,3.07,3.07,0,0,0,1.94.57A3,3,0,0,0,91.29,40,1.38,1.38,0,0,0,91.9,38.86Z"/><path class="cls-3" d="M101.37,26v3.21h2.33v2.2h-2.33v7.38a1.63,1.63,0,0,0,.3,1.09,1.39,1.39,0,0,0,1.06.33,4.61,4.61,0,0,0,1-.12v2.3a7.53,7.53,0,0,1-2,.28q-3.42,0-3.42-3.77V31.44H96.23v-2.2H98.4V26Z"/><path class="cls-3" d="M113.13,32a8,8,0,0,0-1.21-.09,2.72,2.72,0,0,0-2.75,1.56v9h-3V29.24H109l.07,1.48a3.34,3.34,0,0,1,3-1.72,2.88,2.88,0,0,1,1,.17Z"/><path class="cls-3" d="M115.26,25.8a1.57,1.57,0,0,1,.43-1.14,1.64,1.64,0,0,1,1.24-.46,1.68,1.68,0,0,1,1.25.46,1.71,1.71,0,0,1,0,2.27,1.68,1.68,0,0,1-1.25.45,1.64,1.64,0,0,1-1.24-.45A1.56,1.56,0,0,1,115.26,25.8Zm3.15,16.65h-3V29.24h3Z"/><path class="cls-3" d="M127.7,42.7a6.12,6.12,0,0,1-4.57-1.78,6.43,6.43,0,0,1-1.75-4.73v-.37a7.92,7.92,0,0,1,.76-3.53,5.87,5.87,0,0,1,2.14-2.42,5.66,5.66,0,0,1,3.08-.87,5.18,5.18,0,0,1,4.17,1.72A7.28,7.28,0,0,1,133,35.59v1.2h-8.63a4,4,0,0,0,1.09,2.59,3.31,3.31,0,0,0,2.41.95,4,4,0,0,0,3.32-1.65l1.6,1.53A5.28,5.28,0,0,1,130.68,42,6.62,6.62,0,0,1,127.7,42.7Zm-.35-11.32a2.5,2.5,0,0,0-2,.86,4.44,4.44,0,0,0-1,2.38h5.65V34.4a3.61,3.61,0,0,0-.79-2.26A2.52,2.52,0,0,0,127.35,31.38Z"/><path class="cls-3" d="M142.47,32a8,8,0,0,0-1.21-.09,2.72,2.72,0,0,0-2.75,1.56v9h-3V29.24h2.83l.07,1.48a3.34,3.34,0,0,1,3-1.72,2.88,2.88,0,0,1,1,.17Z"/><path class="cls-3" d="M148.92,26v3.21h2.33v2.2h-2.33v7.38a1.63,1.63,0,0,0,.3,1.09,1.4,1.4,0,0,0,1.07.33,4.59,4.59,0,0,0,1-.12v2.3a7.53,7.53,0,0,1-1.95.28q-3.42,0-3.42-3.77V31.44h-2.17v-2.2H146V26Z"/><path class="cls-3" d="M159.58,42.7A6.12,6.12,0,0,1,155,40.92a6.43,6.43,0,0,1-1.75-4.73v-.37a7.92,7.92,0,0,1,.76-3.53,5.8,5.8,0,0,1,2.14-2.42,5.66,5.66,0,0,1,3.08-.87,5.18,5.18,0,0,1,4.17,1.72,7.28,7.28,0,0,1,1.47,4.87v1.2h-8.63a4,4,0,0,0,1.09,2.59,3.29,3.29,0,0,0,2.41.95,4,4,0,0,0,3.32-1.65l1.6,1.53A5.24,5.24,0,0,1,162.55,42,6.55,6.55,0,0,1,159.58,42.7Zm-.35-11.32a2.49,2.49,0,0,0-2,.86,4.44,4.44,0,0,0-1,2.38H162V34.4a3.67,3.67,0,0,0-.79-2.26A2.52,2.52,0,0,0,159.23,31.38Z"/><path class="cls-3" d="M60.85,13.94a8.77,8.77,0,0,1-.71,3.65,5.28,5.28,0,0,1-2,2.38,5.45,5.45,0,0,1-3,.82,5.33,5.33,0,0,1-5-3.18,8.53,8.53,0,0,1-.74-3.54v-1a8.65,8.65,0,0,1,.72-3.63,5.32,5.32,0,0,1,2-2.4,5.41,5.41,0,0,1,3-.84,5.51,5.51,0,0,1,3,.83,5.21,5.21,0,0,1,2,2.39,8.8,8.8,0,0,1,.71,3.65ZM59,13a6.46,6.46,0,0,0-1-3.89,3.36,3.36,0,0,0-2.84-1.35,3.31,3.31,0,0,0-2.8,1.35,6.29,6.29,0,0,0-1,3.76v1a6.39,6.39,0,0,0,1,3.86,3.61,3.61,0,0,0,5.65.07,6.36,6.36,0,0,0,1-3.79Z"/><path class="cls-3" d="M65.09,10l0,1.33a3.86,3.86,0,0,1,3.17-1.53q3.34,0,3.38,3.78v7H69.88v-7a2.47,2.47,0,0,0-.52-1.69,2.12,2.12,0,0,0-1.6-.54,2.62,2.62,0,0,0-1.54.46,3.31,3.31,0,0,0-1,1.24v7.52h-1.8V10Z"/><path class="cls-3" d="M76.38,20.59H74.57v-15h1.81Z"/><path class="cls-3" d="M79.28,7.23a1.14,1.14,0,0,1,.26-.75,1.22,1.22,0,0,1,1.6,0,1.1,1.1,0,0,1,.27.75,1,1,0,0,1-.27.73,1.25,1.25,0,0,1-1.6,0A1.09,1.09,0,0,1,79.28,7.23Zm2,13.36H79.42V10h1.81Z"/><path class="cls-3" d="M85.83,10l.06,1.33a3.83,3.83,0,0,1,3.16-1.53q3.35,0,3.38,3.78v7H90.62v-7a2.42,2.42,0,0,0-.52-1.69,2.1,2.1,0,0,0-1.6-.54,2.62,2.62,0,0,0-1.54.46,3.2,3.2,0,0,0-1,1.24v7.52H84.12V10Z"/><path class="cls-3" d="M99.54,20.79A4.63,4.63,0,0,1,96,19.38,5.23,5.23,0,0,1,94.7,15.6v-.33a6.37,6.37,0,0,1,.6-2.81A4.72,4.72,0,0,1,97,10.53a4.27,4.27,0,0,1,2.33-.7,4,4,0,0,1,3.21,1.36,5.9,5.9,0,0,1,1.14,3.89v.75H96.5a3.73,3.73,0,0,0,.92,2.52,2.87,2.87,0,0,0,2.22,1,3.07,3.07,0,0,0,1.62-.4,4,4,0,0,0,1.16-1l1.1.86A4.43,4.43,0,0,1,99.54,20.79Zm-.23-9.47a2.4,2.4,0,0,0-1.83.79,3.87,3.87,0,0,0-.92,2.23h5.29v-.13a3.47,3.47,0,0,0-.74-2.14A2.27,2.27,0,0,0,99.31,11.32Z"/></g></svg>