<svg xmlns="http://www.w3.org/2000/svg" viewBox="0 0 276.82 51.23"><defs><style>path{fill:#fff;}.cls-1{fill:#156fbc;}.cls-2{fill:#fff;}</style></defs><title>Artboard 47</title><g id="Object"><path class="cls-1" d="M28.77.62A25.19,25.19,0,0,0,21.6,50.49a26,26,0,0,0,3.6.26A25.19,25.19,0,0,0,28.77.62Z"/><path class="cls-2" d="M15,25.09a1.84,1.84,0,0,1,0,1.52c-.4.61-1.6.57-1.74,1.85A3.49,3.49,0,0,0,14,31.15c.58.93.15,1.5.8,2s2.17.71,1.87,1.88-.83,3.31-.55,3.85S16,39.35,15.9,40s.83,1.32.76,2.16-.91,1.66-.37,2.54.68.55.93,1.34.41,1.13.85,1.24,1.13.21,1.38.6.9-.32.47-.74-1-.27-.83-1.1.65-1.07,0-1.47-.54-.89-.27-.89.89-.28.37-.71-.68-.54-.28-.53a3,3,0,0,0,2.72-.64,26.33,26.33,0,0,0,2.07-2.29,2.79,2.79,0,0,0,.21-1.44c-.12-.74.45-.92,1.42-.83s.85-.37.85-.37.86.89,1.15-2.69c0,0-.05-.59,1.05-1.1s.17-1.81-.45-1.81c0,0-.25-.79-.77-.91s-1.7,0-2.18-.36a7.15,7.15,0,0,0-1.15-.7s.59-2.55-1.91-2.55c0,0-.36-1.84-1.62-1.8s-1.4.16-1.59-.14-.41-1.44-1.3-1.21-1.08,1.36-1.94,1.1-1.94-.19-1.68-1,.4-1.87-.94-1.88c0,0-.34-.14.22-.59s.3-1.17,0-1.12-1.26.71-1.71.73-1.89-.22-1.1-2,4.57-1.94,4.84-1,0,1.24.84,1.33.61-1.48.61-1.48l2.4-1.49a1.83,1.83,0,0,0,.43-.47c.18-.29,3.1-1.7,3.74-2.68s.84-1.53,1.67-1.1,1.18.53,1.39,0,1.31.85,1.75.25a.88.88,0,0,0-.68-1.48c-.92-.14.28-1-.09-1.27s-1.06.56-1.42.25.4-1.51-.8-1.55-1.35.07-1.72,1.41-.9,0-1.84,1-.73.39-.82-.2a1.49,1.49,0,0,0-1.41-1.1c-.66-.05-.4-1.26.58-1.53s2.16-.71,2.16-.71.1.82.8.6a1.52,1.52,0,0,0,.94-.93l.7.1a3.22,3.22,0,0,1,.62-.54c.13,0,1.57.23,1.57.23s.82-.06.05.32-1.24-.09-1.07.6.22.3.73.78a.9.9,0,0,0,1.52-.28s1.05.42,1.28-.26a.65.65,0,0,0-.31-.89,2.18,2.18,0,0,0-1-1.49c-.94-.58-3.33-1.06-3.56.2s-1.18.46-1.18.46a1.34,1.34,0,0,0,.68-1c.1-.7-1.78-1-1.82-.39s.4.9-.1,1a11,11,0,0,1-1.61.31c-.63,0-.7-.73-.7-.73a3.35,3.35,0,0,0,1.17-.1c.7-.17,1.11-.82.34-1.07s.05.59-1.66.34c0,0-.21-.07-.4-.63s-1.76-.84-2.32-.34-.26.9.21,1.06-.2.46.53.61,1,.24.83.43-3.89-.87-3.81-1.71c0,0-7.41,3.36-10.37,10.26a.72.72,0,0,0,.55.53c.48.11.78.16.61,1.07s-.46,2.84.76,3.06.61-.81.32-1.3-.47-2,.24-1.62-.34.45.72,2.43-.58,1.84.69,3.27,2-.07,2.4.43,0,.81.85.93.48-.24.85.57S12.51,25.67,15,25.09Z"/><path class="cls-2" d="M23.43,13.4s-.66.26-.36.62S24.21,14.18,23.43,13.4Z"/><path class="cls-2" d="M24.41,12.2a.37.37,0,0,0-.46.33c-.06.44.67.68.89.36S24.41,12.2,24.41,12.2Z"/><path class="cls-2" d="M25.49,13a1.26,1.26,0,0,1-.69.44c-.36,0-.83-.08-.57.59s.85,0,.85,0S26.37,13.73,25.49,13Z"/><path class="cls-2" d="M26.88,12.37s-1.14-.12-.64.76a3.16,3.16,0,0,1,.64.49c.31.32,1.1.43,1.17,0S27.93,12.53,26.88,12.37Z"/><path class="cls-2" d="M38.49,19s-2.05-.66-2.73.63-.39,1.46-2.3,2S33,23.26,33,23.26s.61.4-.12.83a2.13,2.13,0,0,0-.71,2.44c.34.77,1.34,2.48,2.06,2.8s2.77.58,3.2.06.8-.6,1.35-.07,2.39.21,2.18.71-1.17,1.62-.43,3,1.26,2.41.4,3.14a1.57,1.57,0,0,0,0,2.49s-.6,1.75,0,2.5a2.47,2.47,0,0,1,.25,2.27c-.2.5,0,.22,0,.22s-.15.78.27.35S51,35.45,49.44,22.27c0,0-2.21.22-2.43-.44s-.95-.89-2.41-.66-.89-.35-1.39-.55a2.13,2.13,0,0,0-1.06-.11S43.65,17.87,38.49,19Z"/><path class="cls-2" d="M39.26,15.72s.27.93-.36.7-2.3-.82-2.39.73,1.3,1.53,2.5,1.26a3.13,3.13,0,0,0,1.81-1.71s1.21.62,1.68-.16c0,0,.5,1.46,1.23,1.65a.69.69,0,0,0-.56.81c.12.69,2.14.36,1.7-1s-2.47-1.11-1.25-1.83,1.77,1.33,1.78,1.86S45,19.89,46,19.41s.83-2,1.16-1.22-.29,1.7.68,1.8a6.59,6.59,0,0,1,1.23.18s-1.67-6.45-5.24-10.5c0,0,0,.49-.93.54a1.11,1.11,0,0,0-.83,1.8c.61.67,1.56.32,1.53.8s-.19.74-.9.41-1.17-.26-1.35.39-.48,1.13-1,.88S38.7,14.65,39.26,15.72Z"/><path class="cls-2" d="M37.69,12.05a.8.8,0,0,0-.19,1.36c.82.83,1-1,1.46-.86s.41.59.12.73-.85.64-.3.81,1.91.45,1.89-.36-.63-.89-.63-.89-.62-.72-.17-1.32a.56.56,0,0,0-.63-.59c-.67,0-.65,1.12-.79,1.14A5.62,5.62,0,0,1,37.69,12.05Z"/><path d="M77.54,50.52h-14V48.65a8.05,8.05,0,0,0,2.65-.34,1.88,1.88,0,0,0,1.17-1,5.33,5.33,0,0,0,.28-1.92V28a3.45,3.45,0,0,0-.75-2.52c-.49-.49-1.61-.74-3.35-.74V22.89h14v1.87a7.75,7.75,0,0,0-2.65.35,1.91,1.91,0,0,0-1.17,1,5.21,5.21,0,0,0-.28,1.9V45.38a5.15,5.15,0,0,0,.27,1.86,2,2,0,0,0,1.13,1,7.48,7.48,0,0,0,2.7.37Z"/><path d="M91.06,50.52H79.34V48.65h.88a3.41,3.41,0,0,0,1.72-.33,1.35,1.35,0,0,0,.66-.92,9.12,9.12,0,0,0,.13-1.73V28.31c0-1-.23-1.6-.69-1.88a6,6,0,0,0-2.7-.4V24.15L88,22.4V45.67a10.34,10.34,0,0,0,.11,1.72,1.39,1.39,0,0,0,.66.92,3.39,3.39,0,0,0,1.72.34h.59Z"/><path d="M104.54,50.52H92.82V48.65h.88a3.41,3.41,0,0,0,1.72-.33,1.35,1.35,0,0,0,.66-.92,9.3,9.3,0,0,0,.12-1.73V28.31c0-1-.22-1.6-.68-1.88a6,6,0,0,0-2.7-.4V24.15l8.64-1.75V45.67a10.34,10.34,0,0,0,.11,1.72,1.39,1.39,0,0,0,.66.92,3.39,3.39,0,0,0,1.72.34h.59Z"/><path d="M129.71,50.4l-2.05.13c-1,.06-2.08.15-3.3.26s-2.19.25-2.92.4v-3a8.07,8.07,0,0,1-6.3,3,5.82,5.82,0,0,1-4-1.14,4.84,4.84,0,0,1-1.59-2.51,13.85,13.85,0,0,1-.3-2.95v-6a7.42,7.42,0,0,0-.15-1.76,1.27,1.27,0,0,0-.75-.86,5,5,0,0,0-2-.29V33.83h8.17V45.06q0,3.46,2.67,3.46a3.47,3.47,0,0,0,2.59-1.09,10.2,10.2,0,0,0,1.63-2.09V38.62a7.62,7.62,0,0,0-.15-1.81,1.27,1.27,0,0,0-.79-.83,5.82,5.82,0,0,0-2.1-.27V33.83h8.3V46.1a4.17,4.17,0,0,0,.18,1.42,1.33,1.33,0,0,0,.84.73,6,6,0,0,0,2,.27Z"/><path d="M149.61,45.67a4.5,4.5,0,0,1-1.05,3,6.58,6.58,0,0,1-2.87,1.88,12.63,12.63,0,0,1-4.21.64,17.08,17.08,0,0,1-3.24-.31,10.48,10.48,0,0,1-2.85-1l-.8,1.14H133l-.2-5.3h1.71a5,5,0,0,0,2.06,2.46,8.37,8.37,0,0,0,4.67,1.09,14.59,14.59,0,0,0,1.67-.11,4.33,4.33,0,0,0,1.72-.63,1.71,1.71,0,0,0,.82-1.57,1.39,1.39,0,0,0-.84-1.33,18.89,18.89,0,0,0-3.17-1c-1.87-.47-3.41-.93-4.6-1.35a8.39,8.39,0,0,1-3-1.85,4.1,4.1,0,0,1-1.24-3.09,4.32,4.32,0,0,1,2.21-3.82,10.7,10.7,0,0,1,5.79-1.4,13.86,13.86,0,0,1,3.59.37,13.31,13.31,0,0,1,2.26.79l.49-1h1.63V38h-1.67a3.09,3.09,0,0,0-1-1.53,5.44,5.44,0,0,0-2.11-1.07,11.08,11.08,0,0,0-3-.38,13.82,13.82,0,0,0-2.85.31c-.94.2-1.41.69-1.41,1.45a1.11,1.11,0,0,0,.27.77,2.68,2.68,0,0,0,1,.57,21,21,0,0,0,2.36.69l2,.51a21.84,21.84,0,0,1,5.45,2.06A4.52,4.52,0,0,1,149.61,45.67Z"/><path d="M166.23,46.89a8,8,0,0,1-2.57,3.3,6,6,0,0,1-3.44,1,5.32,5.32,0,0,1-3.55-1,4,4,0,0,1-1.4-2.19A12.46,12.46,0,0,1,155,45.3V35.71h-3.08V33.83a7.28,7.28,0,0,0,3.37-.73,5.86,5.86,0,0,0,2.25-2,6.67,6.67,0,0,0,1.05-2.67h1.67v5.38H166v1.88h-5.76v9.72a10.14,10.14,0,0,0,.23,2.55,1.07,1.07,0,0,0,1.15.79,2,2,0,0,0,1.61-.77,11.17,11.17,0,0,0,1.23-1.9Z"/><path d="M185.43,36.38a2.43,2.43,0,0,1-.72,1.86,2.38,2.38,0,0,1-1.7.69,2.51,2.51,0,0,1-2-1.15,5.84,5.84,0,0,0-.67-.73,1.15,1.15,0,0,0-.76-.22,2.71,2.71,0,0,0-2.47,1.72,7.73,7.73,0,0,0-.89,3.57v3.55a4.41,4.41,0,0,0,.44,2.34c.29.42,1.06.64,2.31.64H180v1.87H167.36V48.65h1.06q1.71,0,2.1-.66a4.9,4.9,0,0,0,.38-2.32v-6a5.14,5.14,0,0,0-.27-2,1.43,1.43,0,0,0-1-.78,9.57,9.57,0,0,0-2.28-.19V34.91l7.95-1.75a28.19,28.19,0,0,1,.57,4.42,9,9,0,0,1,1.49-2.2,8,8,0,0,1,2.08-1.61,4.94,4.94,0,0,1,2.36-.61,3.67,3.67,0,0,1,2.65.94A3,3,0,0,1,185.43,36.38Z"/><path d="M197.79,50.52H186.73V48.65h.59a3.41,3.41,0,0,0,1.72-.33,1.35,1.35,0,0,0,.66-.92,9.3,9.3,0,0,0,.12-1.73V39.62a7.53,7.53,0,0,0-.15-1.8,1.19,1.19,0,0,0-.79-.77,7,7,0,0,0-2.15-.26V34.91l8.35-1.75V45.67a4.43,4.43,0,0,0,.43,2.34c.28.42,1.05.64,2.28.64ZM195.49,28a2.92,2.92,0,1,1-.86-2.12A2.89,2.89,0,0,1,195.49,28Z"/><path d="M219,41.55H206.5c0,.26.05.81.11,1.65a10.32,10.32,0,0,0,.57,2.59A4.78,4.78,0,0,0,208.84,48a5,5,0,0,0,3.14.91,7.87,7.87,0,0,0,2.61-.55,5.61,5.61,0,0,0,2.65-2.12l1.59,1.08q-2.4,3.85-7.64,3.85a12.84,12.84,0,0,1-4.27-.67,9.69,9.69,0,0,1-3.27-1.87,8.23,8.23,0,0,1-2.06-2.84,8.69,8.69,0,0,1-.71-3.5,9.14,9.14,0,0,1,1.19-4.57,8.76,8.76,0,0,1,3.41-3.34,10.22,10.22,0,0,1,5.08-1.24,8.72,8.72,0,0,1,4.71,1.2,7.36,7.36,0,0,1,2.85,3.12A9.32,9.32,0,0,1,219,41.55ZM214,39.68Q214,35,210.31,35a3.17,3.17,0,0,0-2.72,1.29,6,6,0,0,0-1.05,3.36Z"/><path d="M239.3,36.38a2.41,2.41,0,0,1-2.43,2.55,2.51,2.51,0,0,1-2-1.15,5.76,5.76,0,0,0-.68-.73,1.1,1.1,0,0,0-.75-.22,2.72,2.72,0,0,0-2.48,1.72,7.72,7.72,0,0,0-.88,3.57v3.55a4.32,4.32,0,0,0,.44,2.34c.29.42,1.06.64,2.31.64h1.08v1.87H221.22V48.65h1.06c1.15,0,1.84-.22,2.1-.66a4.87,4.87,0,0,0,.39-2.32v-6a5.14,5.14,0,0,0-.27-2,1.47,1.47,0,0,0-1-.78,9.67,9.67,0,0,0-2.29-.19V34.91l7.95-1.75a25.87,25.87,0,0,1,.57,4.42,8.75,8.75,0,0,1,1.5-2.2,7.81,7.81,0,0,1,2.08-1.61,4.93,4.93,0,0,1,2.35-.61,3.64,3.64,0,0,1,2.65.94A3,3,0,0,1,239.3,36.38Z"/><path d="M256,46.89a8.05,8.05,0,0,1-2.57,3.3,6,6,0,0,1-3.44,1,5.32,5.32,0,0,1-3.55-1A4,4,0,0,1,245,48a13.15,13.15,0,0,1-.26-2.72V35.71h-3.08V33.83A7.24,7.24,0,0,0,245,33.1a5.89,5.89,0,0,0,2.26-2,6.67,6.67,0,0,0,1-2.67H250v5.38h5.76v1.88H250v9.72a9.68,9.68,0,0,0,.23,2.55,1.07,1.07,0,0,0,1.15.79A2,2,0,0,0,253,48a10.59,10.59,0,0,0,1.22-1.9Z"/><path d="M276.59,41.55H264.06c0,.26.05.81.11,1.65a9.51,9.51,0,0,0,.57,2.59A4.83,4.83,0,0,0,266.39,48a5,5,0,0,0,3.15.91,7.87,7.87,0,0,0,2.61-.55,5.58,5.58,0,0,0,2.64-2.12l1.59,1.08q-2.4,3.85-7.64,3.85a12.88,12.88,0,0,1-4.27-.67,9.69,9.69,0,0,1-3.27-1.87,8.2,8.2,0,0,1-2.05-2.84,8.53,8.53,0,0,1-.72-3.5,9.14,9.14,0,0,1,1.19-4.57A8.79,8.79,0,0,1,263,34.4a10.18,10.18,0,0,1,5.07-1.24,8.78,8.78,0,0,1,4.72,1.2,7.4,7.4,0,0,1,2.84,3.12A9.33,9.33,0,0,1,276.59,41.55Zm-5.06-1.87q0-4.65-3.66-4.65a3.16,3.16,0,0,0-2.72,1.29,5.88,5.88,0,0,0-1,3.36Z"/><path d="M149.16,11.31a10.53,10.53,0,0,1,3.42-8.21A12.25,12.25,0,0,1,161.13,0a12.57,12.57,0,0,1,8.63,3.06,10.62,10.62,0,0,1,3.46,8.37,11,11,0,0,1-3.32,8.31,13.45,13.45,0,0,1-17.37,0A11.07,11.07,0,0,1,149.16,11.31Zm3.73.12q0,5.33,2.13,8t6.38,2.67a7.19,7.19,0,0,0,5.9-2.67q2.17-2.67,2.17-8c0-3.43-.71-6.07-2.13-7.9A8.36,8.36,0,0,0,155,3.5C153.6,5.28,152.89,7.93,152.89,11.43Z"/><path d="M195.47,23,179.84,2.3V17.64a10.15,10.15,0,0,0,.19,2.51,2.12,2.12,0,0,0,1.07,1.11,5.49,5.49,0,0,0,2.64.5v.75h-8.25v-.75a5.82,5.82,0,0,0,2.41-.58,1.92,1.92,0,0,0,1-1,12.6,12.6,0,0,0,.15-2.54V5.92a15.44,15.44,0,0,0-.24-3.41,1.54,1.54,0,0,0-.75-1.11,6.67,6.67,0,0,0-2.29-.24V.41h6.53L195.38,17.7V4.48a4.87,4.87,0,0,0-.31-2.05,2.13,2.13,0,0,0-1.23-.93,6.42,6.42,0,0,0-2.23-.34V.41h8v.75a5.63,5.63,0,0,0-2.21.54,2,2,0,0,0-1,1,6.7,6.7,0,0,0-.22,2V23Z"/><path d="M219.84,16l-.16,6.5H200.9v-.75h.65a3.84,3.84,0,0,0,2-.36,1.66,1.66,0,0,0,.7-1.11,24.44,24.44,0,0,0,.15-3.53V5.92a23.24,23.24,0,0,0-.15-3.41,1.5,1.5,0,0,0-.65-1.06,5.21,5.21,0,0,0-2.18-.29h-.49V.41h10.61v.75h-1a5.39,5.39,0,0,0-2.14.27,1.43,1.43,0,0,0-.68,1,21.29,21.29,0,0,0-.17,3.49V17.49a20.79,20.79,0,0,0,.13,3,1.42,1.42,0,0,0,.71.94,6,6,0,0,0,2.49.33h1.68a9.4,9.4,0,0,0,3-.36,4.29,4.29,0,0,0,1.88-1.56A12.39,12.39,0,0,0,219.08,16Z"/><path d="M221,1.16V.41h10.1v.75h-.47a5.39,5.39,0,0,0-2.14.27,1.42,1.42,0,0,0-.67,1,20.15,20.15,0,0,0-.17,3.49V16.76a29.48,29.48,0,0,0,.12,3.41,1.74,1.74,0,0,0,.65,1.2,3.67,3.67,0,0,0,2,.39h.65v.75H221v-.75h.65a3.8,3.8,0,0,0,2-.36,1.59,1.59,0,0,0,.69-1.11,24.44,24.44,0,0,0,.15-3.53V5.92a23.24,23.24,0,0,0-.15-3.41,1.44,1.44,0,0,0-.65-1.06,5.21,5.21,0,0,0-2.18-.29Z"/><path d="M252.5,23,236.86,2.3V17.64a10.69,10.69,0,0,0,.19,2.51,2.12,2.12,0,0,0,1.07,1.11,5.51,5.51,0,0,0,2.64.5v.75h-8.25v-.75a5.82,5.82,0,0,0,2.41-.58,1.85,1.85,0,0,0,1-1,12.6,12.6,0,0,0,.15-2.54V5.92a16.33,16.33,0,0,0-.23-3.41,1.6,1.6,0,0,0-.75-1.11,6.71,6.71,0,0,0-2.29-.24V.41h6.52L252.4,17.7V4.48a4.9,4.9,0,0,0-.3-2.05,2.13,2.13,0,0,0-1.23-.93,6.48,6.48,0,0,0-2.24-.34V.41h8v.75a5.63,5.63,0,0,0-2.21.54,2,2,0,0,0-1,1,6.38,6.38,0,0,0-.22,2V23Z"/><path d="M276,15.63h.78l-.47,6.88H258v-.75h.45a3.38,3.38,0,0,0,2.13-.44,1.91,1.91,0,0,0,.61-1.11,25.43,25.43,0,0,0,.13-3.45V5.92a25.56,25.56,0,0,0-.13-3.33,1.58,1.58,0,0,0-.64-1.11,4.36,4.36,0,0,0-2.1-.32V.41h15.8l.52,5.51h-.76a8.76,8.76,0,0,0-1.28-3.29A3.3,3.3,0,0,0,271,1.41a15.82,15.82,0,0,0-3.36-.25h-3.07v9.27h2.35a6.52,6.52,0,0,0,2.26-.27,1.49,1.49,0,0,0,.85-.84,8,8,0,0,0,.2-2.2H271v7.57h-.77a6.38,6.38,0,0,0-.31-2.47,1.52,1.52,0,0,0-.91-.82,7.71,7.71,0,0,0-2-.18h-2.43v5.23q0,3.93.51,4.62c.33.46,1.24.69,2.72.69h1.65a7.82,7.82,0,0,0,2.87-.45,5.06,5.06,0,0,0,2.14-1.84A10.93,10.93,0,0,0,276,15.63Z"/></g></svg>